<svg xmlns="http://www.w3.org/2000/svg" viewBox="0 0 213 158.53"><defs><style>.cls-1{fill:#ffff1c;}</style></defs><title>Asset 21</title><g id="Layer_2" data-name="Layer 2"><g id="Layer_1-2" data-name="Layer 1"><path class="cls-1" d="M123.21,158.53A29.1,29.1,0,0,1,111.09,156c-15.55-7-22.36-26.54-26.87-39.48-.37-1.07-.73-2.1-1.07-3.06a7.84,7.84,0,0,0-7.36-5.21h-61A14.82,14.82,0,0,1,0,93.44V14.8A14.8,14.8,0,0,1,16.93.16L200.34,26.87A14.87,14.87,0,0,1,213,41.51V93.44a14.82,14.82,0,0,1-14.8,14.8H169.5a3.5,3.5,0,0,1,0-7h28.7a7.81,7.81,0,0,0,7.8-7.8V41.51a7.85,7.85,0,0,0-6.67-7.72L15.92,7.08A7.8,7.8,0,0,0,7,14.8V93.44a7.81,7.81,0,0,0,7.8,7.8h61a14.84,14.84,0,0,1,13.95,9.86c.35,1,.72,2,1.09,3.11C95,126,101.16,143.85,114,149.61c6.52,2.93,14.08,2.55,23.12-1.16a4.33,4.33,0,0,0,2.24-2.43,32.74,32.74,0,0,1-15.09-.92c-11.83-3.58-18.15-12.63-18.26-26.18a44.28,44.28,0,0,1,6.67-23.44l9-14.69-5.75-19.1a16.82,16.82,0,0,1,8.75-20.12,12.23,12.23,0,0,1,12.64.93c6.11,4.19,7.92,13.22,3.95,19.71l-12,19.56,4.23,14.08a22,22,0,0,1,4.53-.69,24.74,24.74,0,0,1,21.86,11.5c7.75,12,6,23.42-5,32.28a34.41,34.41,0,0,1-8,4.84c-.27,4.7-2.56,9.27-7.12,11.14A43.61,43.61,0,0,1,123.21,158.53Zm1.14-68.75-5.73,9.36A37.13,37.13,0,0,0,113,118.86c.09,10.47,4.44,16.87,13.29,19.54a25.71,25.71,0,0,0,12.88.52l-9.8-32.57a18.83,18.83,0,0,0-3.63,7.31,12.73,12.73,0,0,0,7.34,15.22l.26.11a3.5,3.5,0,1,1-2.62,6.49l-.34-.14A19.73,19.73,0,0,1,119,111.77c1.79-6.37,4.77-10.39,8.12-12.88Zm11.16,12.78,10.24,34a26.69,26.69,0,0,0,4.73-3.09c8.15-6.57,9.29-14.1,3.52-23a17.76,17.76,0,0,0-15.63-8.32A15.16,15.16,0,0,0,135.51,102.56Zm-5.22-55.32a6.44,6.44,0,0,0-2.71.68,9.8,9.8,0,0,0-5,11.75l4,13.11,8.71-14.23c2.06-3.36,1.16-8.16-1.93-10.28A5.29,5.29,0,0,0,130.29,47.24Z"/></g></g></svg>